<svg width="33" height="33" viewBox="0 0 33 33" fill="currentColor" xmlns="http://www.w3.org/2000/svg">
    <path
        d="M2.525 25.4823L7.59275 20.4145L11.4907 18.8041C10.1928 16.9583 9.49749 14.7564 9.5 12.5C9.5 6.43456 14.4346 1.5 20.5 1.5C26.5654 1.5 31.5 6.43456 31.5 12.5C31.5 18.5654 26.5654 23.5 20.5 23.5C18.224 23.5026 16.0038 22.7952 14.1488 21.4764L12.5426 25.3639L7.475 30.4319C7.15 30.757 6.76416 31.0148 6.33952 31.1907C5.91488 31.3666 5.45975 31.4571 5.00011 31.4572C4.54048 31.4572 4.08534 31.3667 3.66068 31.1908C3.23603 31.0149 2.85018 30.7571 2.52516 30.4321C2.20013 30.1071 1.94231 29.7213 1.7664 29.2966C1.59049 28.872 1.49995 28.4168 1.49993 27.9572C1.49992 27.4976 1.59044 27.0424 1.76632 26.6178C1.9422 26.1931 2.2 25.8073 2.525 25.4823V25.4823ZM29.5 12.5C29.5 7.5375 25.4625 3.5 20.5 3.5C15.5375 3.5 11.5 7.5375 11.5 12.5C11.5 17.4625 15.5375 21.5 20.5 21.5C25.4625 21.5 29.5 17.4625 29.5 12.5ZM3.93931 29.0177C4.22085 29.2986 4.6023 29.4564 5 29.4564C5.3977 29.4564 5.77915 29.2986 6.06069 29.0177L10.8464 24.232L12.3398 20.6173L8.725 22.1107L3.93919 26.8964C3.65833 27.178 3.50061 27.5594 3.50064 27.9571C3.50066 28.3548 3.65842 28.7362 3.93931 29.0177V29.0177Z"
        fill="currentColor" />
</svg>