<svg width="100%" height="100%" viewBox="0 0 33 33" fill="none" xmlns="http://www.w3.org/2000/svg">
    <g clip-path="url(#clip0_184_2180)">
        <path fill-rule="evenodd" clip-rule="evenodd" d="M0.75 16.5893C0.75 24.544 6.52733 31.1587 14.0833 32.5V20.944H10.0833V16.5H14.0833V12.944C14.0833 8.944 16.6607 6.72267 20.306 6.72267C21.4607 6.72267 22.706 6.9 23.8607 7.07733V11.1667H21.8167C19.8607 11.1667 19.4167 12.144 19.4167 13.3893V16.5H23.6833L22.9727 20.944H19.4167V32.5C26.9727 31.1587 32.75 24.5453 32.75 16.5893C32.75 7.74 25.55 0.5 16.75 0.5C7.95 0.5 0.75 7.74 0.75 16.5893Z" fill="#E4E2E6"/>
    </g>
    <defs>
        <clipPath id="clip0_184_2180">
            <rect width="32" height="32" fill="white" transform="translate(0.75 0.5)"/>
        </clipPath>
    </defs>
</svg>
